<?xml version="1.0" encoding="UTF-8" standalone="no"?>
<svg
   id="Flat"
   viewBox="0 0 24 24"
   version="1.1"
   sodipodi:docname="arrow_line_up_icon_175441.svg"
   width="24"
   height="24"
   inkscape:version="1.3 (0e150ed6c4, 2023-07-21)"
   xmlns:inkscape="http://www.inkscape.org/namespaces/inkscape"
   xmlns:sodipodi="http://sodipodi.sourceforge.net/DTD/sodipodi-0.dtd"
   xmlns="http://www.w3.org/2000/svg"
   xmlns:svg="http://www.w3.org/2000/svg">
  <defs
     id="defs1" />
  <sodipodi:namedview
     id="namedview1"
     pagecolor="#505050"
     bordercolor="#eeeeee"
     borderopacity="1"
     inkscape:showpageshadow="0"
     inkscape:pageopacity="0"
     inkscape:pagecheckerboard="0"
     inkscape:deskcolor="#505050"
     inkscape:zoom="26.953125"
     inkscape:cx="2.7084058"
     inkscape:cy="24.691015"
     inkscape:window-width="3840"
     inkscape:window-height="2054"
     inkscape:window-x="-11"
     inkscape:window-y="-11"
     inkscape:window-maximized="1"
     inkscape:current-layer="Flat" />
  <path
     d="m 19.823881,12.73052 a 1.166566,1.166566 0 0 1 -1.649773,1.649774 L 13.166215,9.3724001 V 21.332448 a 1.1665565,1.1665565 0 1 1 -2.333113,0 V 9.3724001 L 5.8252083,14.380294 A 1.166566,1.166566 0 0 1 4.1754353,12.73052 L 11.174772,5.7311838 c 6.8e-4,-7.389e-4 0.0015,-0.00131 0.0022,-0.00206 q 0.03973,-0.039551 0.08316,-0.07516 c 0.01377,-0.01135 0.02829,-0.021195 0.04248,-0.031779 0.01628,-0.0122 0.03223,-0.024829 0.04913,-0.036151 0.0169,-0.011294 0.03446,-0.021093 0.05179,-0.031443 0.01533,-0.00915 0.03028,-0.018776 0.04609,-0.02722 0.01766,-0.00947 0.03584,-0.017496 0.05388,-0.025969 0.01647,-0.00775 0.03266,-0.016001 0.04955,-0.022998 0.01761,-0.00729 0.03565,-0.013199 0.05354,-0.019607 0.01799,-0.00645 0.03574,-0.013339 0.05411,-0.018916 0.01813,-0.00551 0.03655,-0.00952 0.05487,-0.014124 0.01856,-0.00467 0.03688,-0.00987 0.05582,-0.013619 0.02136,-0.0042 0.04291,-0.00682 0.06442,-0.00983 0.01619,-0.00224 0.03209,-0.00542 0.04842,-0.00701 a 1.1743797,1.1743797 0 0 1 0.230687,0 c 0.01633,0.00159 0.03223,0.00476 0.04842,0.00701 0.0215,0.00308 0.04305,0.0056 0.06442,0.00983 0.01893,0.00374 0.03726,0.00897 0.05582,0.013619 0.01832,0.00458 0.03674,0.00859 0.05487,0.014124 0.01837,0.00551 0.03608,0.012461 0.05402,0.018888 0.01794,0.00645 0.03603,0.012321 0.05368,0.019654 0.01685,0.00701 0.03299,0.015189 0.04946,0.022951 0.01804,0.0085 0.03626,0.016515 0.05393,0.025987 0.01581,0.00841 0.03076,0.018085 0.04609,0.02722 0.01733,0.01035 0.03489,0.020149 0.05179,0.031443 0.0169,0.011322 0.03284,0.023951 0.04913,0.036151 0.01419,0.010584 0.02872,0.020439 0.04248,0.031779 q 0.04344,0.035562 0.08317,0.075159 c 7.77e-4,7.1e-4 0.0016,0.00131 0.0022,0.00206 z M 19.776699,1.5009952 H 4.2226179 a 1.1665561,1.1665561 0 0 0 0,2.3331121 H 19.776699 a 1.1665561,1.1665561 0 1 0 0,-2.3331121 z"
     id="path1"
     style="stroke-width:0.0972133;stroke:none;stroke-opacity:1;fill:#d7dbe4;fill-opacity:1" />
</svg>
