<?xml version="1.0" encoding="UTF-8" standalone="no"?>
<svg
   id="Flat"
   viewBox="0 0 24 24"
   version="1.1"
   sodipodi:docname="arrow_line_down.svg"
   width="24"
   height="24"
   inkscape:version="1.3 (0e150ed6c4, 2023-07-21)"
   xmlns:inkscape="http://www.inkscape.org/namespaces/inkscape"
   xmlns:sodipodi="http://sodipodi.sourceforge.net/DTD/sodipodi-0.dtd"
   xmlns="http://www.w3.org/2000/svg"
   xmlns:svg="http://www.w3.org/2000/svg">
  <defs
     id="defs1" />
  <sodipodi:namedview
     id="namedview1"
     pagecolor="#505050"
     bordercolor="#eeeeee"
     borderopacity="1"
     inkscape:showpageshadow="0"
     inkscape:pageopacity="0"
     inkscape:pagecheckerboard="0"
     inkscape:deskcolor="#505050"
     inkscape:zoom="13.476562"
     inkscape:cx="-17.363478"
     inkscape:cy="33.28"
     inkscape:window-width="3840"
     inkscape:window-height="2054"
     inkscape:window-x="-11"
     inkscape:window-y="-11"
     inkscape:window-maximized="1"
     inkscape:current-layer="Flat" />
  <path
     d="M 4.4799199,11.297876 A 1.1212193,1.1212193 0 1 1 6.0655629,9.7122324 L 10.87879,14.525459 V 3.0303216 a 1.12121,1.12121 0 0 1 2.24242,0 V 14.525459 l 4.813228,-4.8132266 a 1.1212193,1.1212193 0 0 1 1.585643,1.5856436 l -6.727259,6.727259 c -6.54e-4,7.47e-4 -0.0015,0.0013 -0.0022,0.002 q -0.03819,0.03801 -0.07993,0.07224 c -0.01319,0.01084 -0.0271,0.02028 -0.04065,0.03041 -0.01574,0.01177 -0.03111,0.02395 -0.04745,0.0349 -0.01606,0.01075 -0.03276,0.02007 -0.04923,0.02988 -0.01492,0.0089 -0.02952,0.01829 -0.04489,0.02653 -0.01674,0.009 -0.03399,0.01656 -0.0511,0.02461 -0.01606,0.0076 -0.03184,0.0156 -0.04831,0.02242 -0.01665,0.0069 -0.03367,0.01248 -0.0506,0.01852 -0.01761,0.0063 -0.03499,0.01307 -0.05297,0.01852 -0.01688,0.0051 -0.03399,0.0088 -0.05105,0.01314 -0.01843,0.0046 -0.03664,0.0098 -0.05539,0.01353 -0.01957,0.0039 -0.03928,0.0062 -0.05894,0.009 -0.01652,0.0024 -0.0328,0.0055 -0.04955,0.0071 -0.03677,0.0036 -0.07368,0.0056 -0.110588,0.0056 -0.03691,0 -0.07381,-0.002 -0.110588,-0.0056 -0.01674,-0.0016 -0.03303,-0.0048 -0.04955,-0.0071 -0.01966,-0.0028 -0.03937,-0.0051 -0.05894,-0.009 -0.01875,-0.0037 -0.03695,-0.0089 -0.05539,-0.01353 -0.01706,-0.0043 -0.03417,-0.008 -0.05105,-0.01314 -0.01802,-0.0054 -0.0354,-0.0122 -0.05301,-0.01854 -0.01693,-0.006 -0.0339,-0.01159 -0.05055,-0.01848 -0.01647,-0.0068 -0.0323,-0.01487 -0.04836,-0.02247 -0.01711,-0.0081 -0.03431,-0.01563 -0.05105,-0.02459 -0.01537,-0.0082 -0.02997,-0.01761 -0.04489,-0.02653 -0.01647,-0.0098 -0.03317,-0.01914 -0.04922,-0.02988 -0.01633,-0.01095 -0.03171,-0.02313 -0.04745,-0.0349 -0.01355,-0.01013 -0.02746,-0.01957 -0.04065,-0.03041 q -0.04174,-0.03418 -0.07993,-0.07224 c -7.47e-4,-6.54e-4 -0.0015,-0.0013 -0.0022,-0.002 z M 19.474732,19.848468 H 4.5252679 a 1.12121,1.12121 0 1 0 0,2.24242 H 19.474732 a 1.12121,1.12121 0 0 0 0,-2.24242 z"
     id="path1"
     style="stroke-width:0.0934342;fill:#d7dbe4;fill-opacity:1" />
</svg>
