<?xml version="1.0" encoding="UTF-8" standalone="no"?>
<svg
   id="Lock"
   viewBox="0 0 24 24"
   version="1.1"
   sodipodi:docname="lock.svg"
   width="24"
   height="24"
   inkscape:version="1.3 (0e150ed6c4, 2023-07-21)"
   xmlns:inkscape="http://www.inkscape.org/namespaces/inkscape"
   xmlns:sodipodi="http://sodipodi.sourceforge.net/DTD/sodipodi-0.dtd"
   xmlns="http://www.w3.org/2000/svg"
   xmlns:svg="http://www.w3.org/2000/svg">
  <defs
     id="defs2" />
  <sodipodi:namedview
     id="namedview2"
     pagecolor="#505050"
     bordercolor="#eeeeee"
     borderopacity="1"
     inkscape:showpageshadow="0"
     inkscape:pageopacity="0"
     inkscape:pagecheckerboard="0"
     inkscape:deskcolor="#505050"
     inkscape:zoom="26.953125"
     inkscape:cx="7.68"
     inkscape:cy="16.862609"
     inkscape:window-width="3840"
     inkscape:window-height="2054"
     inkscape:window-x="-11"
     inkscape:window-y="-11"
     inkscape:window-maximized="1"
     inkscape:current-layer="Lock" />
  <path
     d="m 12,13.38157 c -0.380922,0 -0.692585,0.311663 -0.692585,0.692585 0,0.380921 0.311663,0.692584 0.692585,0.692584 0.380921,0 0.692584,-0.311663 0.692584,-0.692584 0,-0.380922 -0.311663,-0.692585 -0.692584,-0.692585 z m 0,0 c -0.380922,0 -0.692585,0.311663 -0.692585,0.692585 0,0.380921 0.311663,0.692584 0.692585,0.692584 0.380921,0 0.692584,-0.311663 0.692584,-0.692584 0,-0.380922 -0.311663,-0.692585 -0.692584,-0.692585 z M 17.540676,9.9186474 H 6.4593236 c -1.1427645,0 -2.0777536,0.9349896 -2.0777536,2.0777536 v 6.925845 C 4.38157,20.065011 5.3165591,21 6.4593236,21 H 17.540676 c 1.142765,0 2.077754,-0.934989 2.077754,-2.077754 v -6.925845 c 0,-1.142764 -0.934989,-2.0777536 -2.077754,-2.0777536 z m -4.848092,6.1085956 v 1.509834 c 0,0.380922 -0.311663,0.692585 -0.692584,0.692585 -0.380922,0 -0.692585,-0.311663 -0.692585,-0.692585 v -1.509834 c -0.803398,-0.28396 -1.385169,-1.052728 -1.385169,-1.953088 0,-1.142765 0.934989,-2.077754 2.077754,-2.077754 1.142764,0 2.077754,0.934989 2.077754,2.077754 0,0.90036 -0.581771,1.669128 -1.38517,1.953088 z M 12,13.38157 c -0.380922,0 -0.692585,0.311663 -0.692585,0.692585 0,0.380921 0.311663,0.692584 0.692585,0.692584 0.380921,0 0.692584,-0.311663 0.692584,-0.692584 0,-0.380922 -0.311663,-0.692585 -0.692584,-0.692585 z m 0,0 c -0.380922,0 -0.692585,0.311663 -0.692585,0.692585 0,0.380921 0.311663,0.692584 0.692585,0.692584 0.380921,0 0.692584,-0.311663 0.692584,-0.692584 0,-0.380922 -0.311663,-0.692585 -0.692584,-0.692585 z m 0,0 c -0.380922,0 -0.692585,0.311663 -0.692585,0.692585 0,0.380921 0.311663,0.692584 0.692585,0.692584 0.380921,0 0.692584,-0.311663 0.692584,-0.692584 0,-0.380922 -0.311663,-0.692585 -0.692584,-0.692585 z"
     id="path1"
     style="stroke-width:0.692585;fill:#d7dbe4;fill-opacity:1" />
  <path
     d="m 16.848092,8.0071141 v 0.5263642 c 0,0.3809215 -0.311663,0.6925846 -0.692585,0.6925846 v 0 c -0.380921,0 -0.692584,-0.3116631 -0.692584,-0.6925846 V 7.9932624 c 0,-1.8076457 -1.322837,-3.4213677 -3.123557,-3.5945138 -2.063902,-0.2008495 -3.8022888,1.4197983 -3.8022888,3.449071 v 0.6925846 c 0,0.3809215 -0.311663,0.6925845 -0.6925845,0.6925845 v 0 c -0.3809215,0 -0.6925845,-0.311663 -0.6925845,-0.6925845 V 7.8478196 c 0,-2.8811517 2.5279338,-5.1874582 5.4852698,-4.8065367 2.444823,0.311663 4.210914,2.5140819 4.210914,4.972757 z"
     id="path2"
     style="stroke-width:0.692585;fill:#d7dbe4;fill-opacity:1" />
</svg>
