<?xml version="1.0" encoding="UTF-8" standalone="no"?>
<svg
   id="Layer_1"
   version="1.1"
   viewBox="0 0 24 24"
   xml:space="preserve"
   sodipodi:docname="right_and_down_arrow.svg"
   width="24"
   height="24"
   inkscape:version="1.3 (0e150ed6c4, 2023-07-21)"
   xmlns:inkscape="http://www.inkscape.org/namespaces/inkscape"
   xmlns:sodipodi="http://sodipodi.sourceforge.net/DTD/sodipodi-0.dtd"
   xmlns="http://www.w3.org/2000/svg"
   xmlns:svg="http://www.w3.org/2000/svg"><defs
     id="defs1" /><sodipodi:namedview
     id="namedview1"
     pagecolor="#505050"
     bordercolor="#eeeeee"
     borderopacity="1"
     inkscape:showpageshadow="0"
     inkscape:pageopacity="0"
     inkscape:pagecheckerboard="0"
     inkscape:deskcolor="#505050"
     inkscape:zoom="26.953125"
     inkscape:cx="-12.577391"
     inkscape:cy="24.653913"
     inkscape:window-width="3840"
     inkscape:window-height="2054"
     inkscape:window-x="-11"
     inkscape:window-y="-11"
     inkscape:window-maximized="1"
     inkscape:current-layer="Layer_1" /><path
     d="M 20.787684,6.7950481 C 19.657246,5.6646108 18.475425,4.4827904 17.344988,3.3523531 16.471468,2.4788335 15.03273,3.8661882 15.957633,4.7397079 c 0.513835,0.5138351 1.079054,1.0790533 1.644272,1.6442724 -2.980243,0 -5.909103,0 -8.8893469,0 -0.4624519,0 -0.8735198,0 -1.2845876,0 -0.3083016,0 -0.5138351,0.1027662 -0.6679863,0.2569175 0,0 0,0 -0.051383,0.051383 -0.2055343,0.2055344 -0.3083006,0.4110679 -0.3083006,0.6679854 0,3.0316268 0,6.1146378 0,9.1462648 0,0.359685 0,0.667986 0,1.079054 C 5.8350813,17.020367 5.218479,16.403764 4.6018768,15.787162 3.728357,14.913642 2.2896191,16.300997 3.214522,17.174517 c 1.1818213,1.181821 2.3636418,2.363642 3.4426959,3.442695 0.4110679,0.411069 1.0276701,0.411069 1.3873548,0 1.1304373,-1.130437 2.3122583,-2.312258 3.4426953,-3.442695 0.87352,-0.87352 -0.513835,-2.312258 -1.387355,-1.387355 -0.5652192,0.565219 -1.1818205,1.181821 -1.7984228,1.798423 0,-2.980243 0,-5.960487 0,-8.9921142 0,-0.1027672 0,-0.2055344 0,-0.3083007 2.7233258,0 5.3952678,0 8.1699778,0 0.462452,0 0.822137,0 1.284589,0 -0.616603,0.6166022 -1.284589,1.2845876 -1.90119,1.9011899 -0.87352,0.873519 0.513835,2.312257 1.387354,1.387354 1.181821,-1.181821 2.363641,-2.363641 3.442695,-3.4426951 0.513835,-0.3083007 0.513835,-0.9249029 0.102768,-1.3359708 z"
     id="path1"
     style="stroke-width:0.513835;fill:#d7dbe4;fill-opacity:1" /></svg>
