<svg version="1.1" viewBox="0 0 24 24" xmlns="http://www.w3.org/2000/svg"><path d="m22.08 14.69-1.05-1.333c0.06823-0.4461 0.09972-0.9027 0.09972-1.354s-0.03149-0.908-0.09972-1.354l1.05-1.333c0.4356-0.5511 0.4881-1.302 0.1365-1.905l-1.128-1.952c-0.3517-0.6088-1.029-0.9342-1.722-0.8345l-1.68 0.2414c-0.7138-0.5668-1.501-1.023-2.346-1.354l-0.6298-1.575c-0.2624-0.6508-0.8818-1.071-1.585-1.071h-2.252c-0.7033 0-1.323 0.4199-1.585 1.071l-0.6298 1.575c-0.845 0.3307-1.632 0.7873-2.346 1.354l-1.68-0.2414c-0.6928-0.09972-1.37 0.2257-1.722 0.8345l-1.128 1.952c-0.3517 0.6088-0.2992 1.354 0.1365 1.905l1.05 1.333c-0.06823 0.4461-0.09972 0.9027-0.09972 1.354s0.03149 0.908 0.09972 1.354l-1.05 1.333c-0.4356 0.5511-0.4881 1.302-0.1365 1.905l1.128 1.952c0.3517 0.6088 1.023 0.9342 1.722 0.8345l1.68-0.2414c0.7138 0.5668 1.501 1.023 2.346 1.354l0.6298 1.575c0.2624 0.6508 0.8818 1.071 1.585 1.071h2.252c0.7033 0 1.323-0.4199 1.585-1.071l0.6298-1.575c0.845-0.3307 1.632-0.7873 2.346-1.354l1.68 0.2414c0.6928 0.09972 1.37-0.2257 1.722-0.8345l1.128-1.952c0.3517-0.6036 0.2992-1.354-0.1365-1.905zm-5.768-2.687c0 2.378-1.931 4.309-4.309 4.309-2.378 0-4.309-1.931-4.309-4.309 0-2.378 1.931-4.309 4.309-4.309 2.378 0 4.309 1.931 4.309 4.309z" fill="#d7dbe4" stroke-width=".05249"/></svg>
