<?xml version="1.0" encoding="UTF-8" standalone="no"?>
<svg
   id="Unlock"
   viewBox="0 0 24 24"
   version="1.1"
   sodipodi:docname="unlock.svg"
   width="24"
   height="24"
   inkscape:version="1.3 (0e150ed6c4, 2023-07-21)"
   xmlns:inkscape="http://www.inkscape.org/namespaces/inkscape"
   xmlns:sodipodi="http://sodipodi.sourceforge.net/DTD/sodipodi-0.dtd"
   xmlns="http://www.w3.org/2000/svg"
   xmlns:svg="http://www.w3.org/2000/svg">
  <defs
     id="defs1" />
  <sodipodi:namedview
     id="namedview1"
     pagecolor="#505050"
     bordercolor="#eeeeee"
     borderopacity="1"
     inkscape:showpageshadow="0"
     inkscape:pageopacity="0"
     inkscape:pagecheckerboard="0"
     inkscape:deskcolor="#505050"
     inkscape:zoom="19.058737"
     inkscape:cx="-7.7654672"
     inkscape:cy="9.6805993"
     inkscape:window-width="3840"
     inkscape:window-height="2054"
     inkscape:window-x="-11"
     inkscape:window-y="-11"
     inkscape:window-maximized="1"
     inkscape:current-layer="Unlock" />
  <g
     id="g1"
     transform="translate(-0.6153845)">
    <circle
       cx="12.615385"
       cy="14.076923"
       id="circle1"
       r="0.69230771"
       style="fill:#d7dbe4;fill-opacity:1;stroke-width:0.692308" />
    <path
       d="M 18.153846,9.9230769 H 9.1538462 V 7.8461538 c 0,-1.9107692 1.5507688,-3.4615384 3.4615388,-3.4615384 1.910769,0 3.461538,1.5507692 3.461538,3.4615384 0,0.3807693 0.311539,0.6923077 0.692308,0.6923077 0.380769,0 0.692307,-0.3115384 0.692307,-0.6923077 C 17.461538,5.1738462 15.287692,3 12.615385,3 9.9430769,3 7.7692308,5.1738462 7.7692308,7.8461538 V 9.9230769 H 7.0769231 C 5.9346154,9.9230769 5,10.857692 5,12 v 6.923077 C 5,20.065385 5.9346154,21 7.0769231,21 H 18.153846 c 1.142308,0 2.076923,-0.934615 2.076923,-2.076923 V 12 c 0,-1.142308 -0.934615,-2.0769231 -2.076923,-2.0769231 z m -4.846154,6.1061541 v 1.509231 c 0,0.380769 -0.311538,0.692307 -0.692307,0.692307 -0.38077,0 -0.692308,-0.311538 -0.692308,-0.692307 V 16.029231 C 11.12,15.738462 10.538462,14.976923 10.538462,14.076923 10.538462,12.934615 11.473077,12 12.615385,12 c 1.142307,0 2.076923,0.934615 2.076923,2.076923 0,0.9 -0.581539,1.661539 -1.384616,1.952308 z"
       id="path1"
       style="fill:#d7dbe4;fill-opacity:1;stroke-width:0.692308" />
  </g>
</svg>
