<?xml version="1.0" encoding="UTF-8" standalone="no"?>
<svg
   viewBox="0 0 24 24"
   version="1.1"
   id="svg1"
   sodipodi:docname="windows.svg"
   width="24"
   height="24"
   inkscape:version="1.3 (0e150ed6c4, 2023-07-21)"
   xmlns:inkscape="http://www.inkscape.org/namespaces/inkscape"
   xmlns:sodipodi="http://sodipodi.sourceforge.net/DTD/sodipodi-0.dtd"
   xmlns="http://www.w3.org/2000/svg"
   xmlns:svg="http://www.w3.org/2000/svg">
  <defs
     id="defs1" />
  <sodipodi:namedview
     id="namedview1"
     pagecolor="#505050"
     bordercolor="#eeeeee"
     borderopacity="1"
     inkscape:showpageshadow="0"
     inkscape:pageopacity="0"
     inkscape:pagecheckerboard="0"
     inkscape:deskcolor="#505050"
     inkscape:zoom="6.7382812"
     inkscape:cx="-81.029565"
     inkscape:cy="16.102029"
     inkscape:window-width="3840"
     inkscape:window-height="2054"
     inkscape:window-x="-11"
     inkscape:window-y="-11"
     inkscape:window-maximized="1"
     inkscape:current-layer="svg1" />
  <!--! Font Awesome Free 6.0.0-beta2 by @fontawesome - https://fontawesome.com License - https://fontawesome.com/license/free (Icons: CC BY 4.0, Fonts: SIL OFL 1.1, Code: MIT License) -->
  <path
     d="M 14.25,7.4999974 H 5.2499984 c -1.2427736,0 -2.2500004,1.0072267 -2.2500004,2.2500004 V 18.75 c 0,1.242422 1.0072268,2.25 2.2500004,2.25 H 14.25 c 1.242774,0 2.250001,-1.007578 2.250001,-2.25 V 9.7499978 c 0,-1.1355471 -0.92461,-2.2500004 -2.250001,-2.2500004 z m 0,4.5000006 H 5.2499984 V 9.7499978 H 14.25 Z M 18.750001,3 H 9.7499993 C 8.5072256,3 7.4999989,4.0072268 7.4999989,5.2183598 V 5.812497 H 9.7499993 V 5.2499969 h 9.0000017 v 9.0000021 h -0.5625 v 2.25 l 0.5625,4e-6 c 1.242774,0 2.250001,-1.007579 2.250001,-2.250001 V 5.2500004 C 21.000002,4.0072232 19.991017,3 18.750001,3 Z"
     id="path1"
     style="stroke-width:0.0351563;fill:#d7dbe4;fill-opacity:1" />
</svg>
